<svg xmlns="http://www.w3.org/2000/svg" xmlns:xlink="http://www.w3.org/1999/xlink" viewBox="0 0 105 105"><defs><style>.cls-1{fill:url(#linear-gradient);}.cls-2{fill:#fff;}</style><linearGradient id="linear-gradient" x1="15.42" y1="15.42" x2="89.58" y2="89.58" gradientUnits="userSpaceOnUse"><stop offset="0" stop-color="#1e2a48"/><stop offset="1" stop-color="#111827"/></linearGradient></defs><g id="Layer_2" data-name="Layer 2"><g id="Layer_1-2" data-name="Layer 1"><rect class="cls-1" width="105" height="105" rx="52.5"/><path class="cls-2" d="M31.37,73.89l7.55-9c4.14,3.6,9.5,6.08,14.29,6.08,5.48,0,8.17-2.16,8.17-5.62,0-3.66-3.31-4.83-8.39-6.92l-7.55-3.22c-6-2.45-11.74-7.41-11.74-15.86C33.7,29.7,42.31,22,54.41,22a26.9,26.9,0,0,1,18.71,7.62l-6.63,8.29C62.65,35,59,33.35,54.41,33.35S47,35.24,47,38.57c0,3.56,3.8,4.86,8.88,6.88l7.41,3c7.1,2.87,11.53,7.6,11.53,15.82,0,9.66-8,18-21.91,18A32,32,0,0,1,31.37,73.89Z"/></g></g></svg>